<svg xmlns="http://www.w3.org/2000/svg" xmlns:xlink="http://www.w3.org/1999/xlink" fill="none" version="1.1" width="138.20126342773438" height="99.42987060546875" viewBox="0 0 138.20126342773438 99.42987060546875"><defs><mask id="master_svg0_0_1084"><g style="mix-blend-mode:passthrough"><rect x="0" y="0" width="138.20126342773438" height="99.42987060546875" rx="0" fill="#FFFFFF" fill-opacity="1"/></g></mask><radialGradient cx="0" cy="0" r="1" gradientUnits="userSpaceOnUse" id="master_svg1__005" gradientTransform="translate(63.807690675224876 8.587513662200081) rotate(92.8815830230863) scale(100.34351882787351 165.70771456468367)"><stop offset="0%" stop-color="#FB7299" stop-opacity="1"/><stop offset="100%" stop-color="#FB7299" stop-opacity="0.24076704680919647"/></radialGradient></defs><g style="mix-blend-mode:passthrough"><g><g style="mix-blend-mode:passthrough"><g mask="url(#master_svg0_0_1084)"><path d="M97.21114928741456,12.331931427001955L119.91944928741455,12.331931427001955C132.13144928741457,12.331931427001955,142.12244928741455,22.40643142700195,142.12244928741455,34.71993142700195L142.12244928741455,90.77953142700196C142.12244928741455,103.09343142700196,132.13144928741457,113.16743142700196,119.91944928741455,113.16743142700196L116.61144928741454,113.16743142700196C116.61144928741454,117.23743142700195,113.33844928741455,120.53743142700195,109.30154928741455,120.53743142700195C105.26524928741455,120.53743142700195,101.99334928741455,117.23743142700195,101.99334928741455,113.16743142700196L50.04184928741455,113.16743142700196C50.04184928741455,117.23743142700195,46.76994928741455,120.53743142700195,42.73294928741455,120.53743142700195C38.696549287414555,120.53743142700195,35.42474928741455,117.23743142700195,35.42474928741455,113.16743142700196L32.115649287414556,113.16743142700196C19.90473928741455,113.16743142700196,9.91344928741455,103.09343142700196,9.91344928741455,90.77953142700196L9.91344928741455,34.71993142700195C9.91344928741455,22.40643142700195,19.90473928741455,12.331931427001955,32.115649287414556,12.331931427001955L55.22064928741455,12.331931427001955L44.49384928741455,1.5149614270019534C42.74804928741455,-0.2461885729980473,42.74804928741455,-3.127508572998047,44.49384928741455,-4.887968572998047C46.23964928741455,-6.649115572998047,49.09764928741455,-6.648421572998047,50.84414928741455,-4.887968572998047L67.91984928741455,12.331931427001955L84.51134928741455,12.331931427001955L101.58774928741455,-4.887968572998047C103.33354928741456,-6.648421572998047,106.19154928741455,-6.649115572998047,107.93724928741455,-4.887968572998047C109.68374928741456,-3.127508572998047,109.68304928741455,-0.2461885729980473,107.93724928741455,1.5149614270019534L97.21114928741456,12.331931427001955ZM33.94164928741455,98.79943142700195L118.94944928741455,98.79943142700195C123.40044928741455,98.79943142700195,127.07544928741456,95.14543142700195,127.04244928741456,90.67913142700195L126.62044928741454,33.71373142700195C126.58744928741456,29.248031427001955,122.97944928741455,25.593131427001953,118.52844928741455,25.593131427001953L33.52024928741455,25.593131427001953C29.06904928741455,25.593131427001953,25.39484928741455,29.248031427001955,25.42774928741455,33.71373142700195L25.84904928741455,90.67913142700195C25.88194928741455,95.14543142700195,29.49104928741455,98.79943142700195,33.94164928741455,98.79943142700195Z" fill-rule="evenodd" transform="matrix(0.9659258127212524,0.2588190734386444,-0.2588190734386444,0.9659258127212524,-1.2691032378459113,-2.7773416874389056)" fill="url(#master_svg1__005)" fill-opacity="0.13947173953056335"/><g style="mix-blend-mode:passthrough"><path d="M46.069020147705075,47.42802429199219L17.628620147705078,52.72129429199219L19.73090014770508,63.07742429199219L48.17202014770508,57.784124291992185L46.069020147705075,47.42802429199219ZM73.40342014770508,57.784124291992185L101.84442014770508,63.07742429199219L103.94682014770508,52.72129429199219L75.50572014770508,47.42802429199219L73.40342014770508,57.784124291992185ZM73.94422014770508,78.33542429199218C74.42922014770508,77.63142429199219,75.24212014770508,77.16812429199219,76.16552014770508,77.16812429199219C77.65212014770508,77.16812429199219,78.71542014770507,78.41252429199218,78.71542014770507,79.89162429199219C78.71542014770507,80.36782429199218,78.59532014770508,80.80382429199219,78.39572014770508,81.1859242919922L78.40532014770508,81.19132429199219C78.40532014770508,81.19132429199219,75.15162014770507,87.8555242919922,68.14202014770507,87.8555242919922C63.811320147705075,87.8555242919922,60.78812014770508,84.4531242919922,60.78812014770508,84.4531242919922C60.78812014770508,84.4531242919922,57.764220147705075,87.8555242919922,53.43412014770508,87.8555242919922C46.423920147705076,87.8555242919922,43.17012014770508,81.19132429199219,43.17012014770508,81.19132429199219L43.18042014770508,81.1859242919922C42.98012014770508,80.80382429199219,42.860120147705075,80.36782429199218,42.860120147705075,79.89162429199219C42.860120147705075,78.41252429199218,43.92342014770507,77.16812429199219,45.40992014770508,77.16812429199219C46.33332014770508,77.16812429199219,47.146920147705075,77.63142429199219,47.631920147705074,78.33542429199218L47.63402014770508,78.33342429199219C47.63402014770508,78.33342429199219,50.08922014770508,82.34982429199218,52.97452014770508,82.34982429199218C57.57422014770508,82.34982429199218,57.90412014770508,78.08712429199218,60.78812014770508,74.81442429199218C63.67132014770508,78.08712429199218,64.00202014770508,82.34982429199218,68.60162014770508,82.34982429199218C71.48632014770507,82.34982429199218,73.94152014770508,78.33342429199219,73.94152014770508,78.33342429199219L73.94422014770508,78.33542429199218Z" fill-rule="evenodd" transform="matrix(0.9659258127212524,0.2588190734386444,-0.2588190734386444,0.9659258127212524,12.875958206657742,-2.9465517506445167)" fill="#FFEFF4" fill-opacity="1"/></g></g></g></g></g></svg>