<svg xmlns="http://www.w3.org/2000/svg" xmlns:xlink="http://www.w3.org/1999/xlink" fill="none" version="1.1" width="40" height="40" viewBox="0 0 40 40"><g><g style="opacity:0;"><rect x="0" y="0" width="40" height="40" rx="0" fill="#FFFFFF" fill-opacity="0"/></g><g><path d="M4,30L4,10Q4,9.85271,4.00722726,9.70559Q4.0144545,9.55848,4.0288916,9.4119Q4.0433288,9.26531,4.0649409,9.119620000000001Q4.0865531,8.97392,4.115288,8.829460000000001Q4.144023,8.684999999999999,4.179812,8.54212Q4.215601,8.399239999999999,4.258358,8.258289999999999Q4.301114,8.11734,4.350736,7.97866Q4.400357,7.839980000000001,4.456723,7.7039Q4.513089,7.56782,4.576064,7.434670000000001Q4.63904,7.30152,4.708472,7.17162Q4.777905,7.04172,4.8536280000000005,6.91538Q4.9293510000000005,6.78905,5.0111799999999995,6.66658Q5.09301,6.54411,5.18075,6.425800000000001Q5.2684999999999995,6.3075,5.36194,6.19364Q5.45538,6.0797799999999995,5.55429,5.97065Q5.65321,5.86151,5.75736,5.75736Q5.86151,5.65321,5.97065,5.55429Q6.0797799999999995,5.45538,6.19364,5.36194Q6.3075,5.2684999999999995,6.425800000000001,5.18075Q6.54411,5.09301,6.66658,5.0111799999999995Q6.78905,4.9293510000000005,6.91538,4.8536280000000005Q7.04172,4.777905,7.17162,4.708472Q7.30152,4.63904,7.434670000000001,4.576064Q7.56782,4.513089,7.7039,4.456723Q7.839980000000001,4.400357,7.97866,4.350736Q8.11734,4.301114,8.258289999999999,4.258358Q8.399239999999999,4.215601,8.54212,4.179812Q8.684999999999999,4.144023,8.829460000000001,4.115288Q8.97392,4.0865531,9.119620000000001,4.0649409Q9.26532,4.0433288,9.4119,4.0288916Q9.55848,4.0144545,9.70559,4.00722726Q9.85271,4,10,4L30,4Q30.1473,4,30.2944,4.00722726Q30.4415,4.0144545,30.5881,4.0288916Q30.7347,4.0433288,30.8804,4.0649409Q31.0261,4.0865531,31.1705,4.115288Q31.315,4.144023,31.4579,4.179812Q31.6008,4.215601,31.7417,4.258358Q31.8827,4.301114,32.0213,4.350736Q32.16,4.400357,32.296099999999996,4.456723Q32.4322,4.513089,32.5653,4.576064Q32.698499999999996,4.63904,32.8284,4.708472Q32.9583,4.777905,33.084599999999995,4.8536280000000005Q33.210899999999995,4.9293510000000005,33.3334,5.0111799999999995Q33.4559,5.09301,33.574200000000005,5.18075Q33.692499999999995,5.2684999999999995,33.8064,5.36194Q33.9202,5.45538,34.029399999999995,5.55429Q34.1385,5.65321,34.242599999999996,5.75736Q34.3468,5.86151,34.4457,5.97065Q34.5446,6.0797799999999995,34.6381,6.19364Q34.7315,6.3075,34.819199999999995,6.425800000000001Q34.907,6.54411,34.9888,6.66658Q35.0706,6.78905,35.1464,6.91538Q35.2221,7.04172,35.2915,7.17162Q35.361000000000004,7.30152,35.4239,7.434670000000001Q35.4869,7.56782,35.5433,7.7039Q35.599599999999995,7.839980000000001,35.6493,7.97866Q35.698899999999995,8.11734,35.7416,8.258289999999999Q35.784400000000005,8.399239999999999,35.8202,8.54212Q35.856,8.684999999999999,35.884699999999995,8.829460000000001Q35.913399999999996,8.97392,35.9351,9.119620000000001Q35.9567,9.26532,35.9711,9.4119Q35.9855,9.55848,35.9928,9.70559Q36,9.85271,36,10L36,30Q36,30.1473,35.9928,30.2944Q35.9855,30.4415,35.9711,30.5881Q35.9567,30.7347,35.9351,30.8804Q35.913399999999996,31.0261,35.884699999999995,31.1705Q35.856,31.315,35.8202,31.4579Q35.784400000000005,31.6008,35.7416,31.7417Q35.698899999999995,31.8827,35.6493,32.0213Q35.599599999999995,32.16,35.5433,32.296099999999996Q35.4869,32.4322,35.4239,32.5653Q35.361000000000004,32.698499999999996,35.2915,32.8284Q35.2221,32.9583,35.1464,33.084599999999995Q35.0706,33.210899999999995,34.9888,33.3334Q34.907,33.4559,34.819199999999995,33.574200000000005Q34.7315,33.692499999999995,34.6381,33.8064Q34.5446,33.9202,34.4457,34.029399999999995Q34.3468,34.1385,34.242599999999996,34.242599999999996Q34.1385,34.3468,34.029399999999995,34.4457Q33.9202,34.5446,33.8064,34.6381Q33.692499999999995,34.7315,33.574200000000005,34.819199999999995Q33.4559,34.907,33.3334,34.9888Q33.210899999999995,35.0706,33.084599999999995,35.1464Q32.9583,35.2221,32.8284,35.2915Q32.698499999999996,35.361000000000004,32.5653,35.4239Q32.4322,35.4869,32.296099999999996,35.5433Q32.16,35.599599999999995,32.0213,35.6493Q31.8827,35.698899999999995,31.7417,35.7416Q31.6008,35.784400000000005,31.4579,35.8202Q31.315,35.856,31.1705,35.884699999999995Q31.0261,35.913399999999996,30.8804,35.9351Q30.7347,35.9567,30.5881,35.9711Q30.4415,35.9855,30.2944,35.9928Q30.1473,36,30,36L10,36Q9.85271,36,9.70559,35.9928Q9.55848,35.9855,9.4119,35.9711Q9.26531,35.9567,9.119620000000001,35.9351Q8.97392,35.913399999999996,8.829460000000001,35.884699999999995Q8.684999999999999,35.856,8.54212,35.8202Q8.399239999999999,35.784400000000005,8.258289999999999,35.7416Q8.11734,35.698899999999995,7.97866,35.6493Q7.839980000000001,35.599599999999995,7.7039,35.5433Q7.56782,35.4869,7.434670000000001,35.4239Q7.30152,35.361000000000004,7.17162,35.2915Q7.04172,35.2221,6.91538,35.1464Q6.78905,35.0706,6.66658,34.9888Q6.54411,34.907,6.425800000000001,34.819199999999995Q6.3075,34.7315,6.19364,34.6381Q6.0797799999999995,34.5446,5.97065,34.4457Q5.86151,34.3468,5.75736,34.242599999999996Q5.65321,34.1385,5.55429,34.029399999999995Q5.45538,33.9202,5.36194,33.8064Q5.2684999999999995,33.692499999999995,5.18075,33.574200000000005Q5.09301,33.4559,5.0111799999999995,33.3334Q4.9293510000000005,33.210899999999995,4.8536280000000005,33.084599999999995Q4.777905,32.9583,4.708472,32.8284Q4.63904,32.698499999999996,4.576064,32.5653Q4.513089,32.4322,4.456723,32.296099999999996Q4.400357,32.16,4.350736,32.0213Q4.301114,31.8827,4.258358,31.7417Q4.215601,31.6008,4.179812,31.4579Q4.144023,31.315,4.115288,31.1705Q4.0865531,31.0261,4.0649409,30.8804Q4.0433288,30.7347,4.0288916,30.5881Q4.0144545,30.4415,4.00722726,30.2944Q4,30.1473,4,30ZM14,14Q14,13.85271,14.0072,13.70559Q14.0145,13.55848,14.0289,13.4119Q14.0433,13.26532,14.0649,13.11962Q14.0866,12.97392,14.1153,12.82946Q14.144,12.685,14.1798,12.54212Q14.2156,12.39924,14.2584,12.25829Q14.3011,12.11734,14.3507,11.97866Q14.4004,11.83998,14.4567,11.7039Q14.5131,11.567820000000001,14.5761,11.43467Q14.639,11.30152,14.7085,11.17162Q14.7779,11.04172,14.8536,10.915379999999999Q14.9293,10.78905,15.0112,10.66658Q15.093,10.54411,15.1808,10.425799999999999Q15.2685,10.307500000000001,15.3619,10.19364Q15.4554,10.07978,15.5543,9.97065Q15.6532,9.861509999999999,15.7574,9.75736Q15.8615,9.65321,15.9706,9.55429Q16.0798,9.45538,16.1936,9.36194Q16.307499999999997,9.2685,16.425800000000002,9.18075Q16.5441,9.09301,16.666600000000003,9.01118Q16.789,8.92935,16.915399999999998,8.853629999999999Q17.0417,8.777899999999999,17.171599999999998,8.70847Q17.3015,8.63904,17.4347,8.57606Q17.5678,8.51309,17.7039,8.45672Q17.84,8.40036,17.9787,8.35074Q18.1173,8.301110000000001,18.2583,8.25836Q18.3992,8.2156,18.542099999999998,8.17981Q18.685000000000002,8.144020000000001,18.8295,8.11529Q18.9739,8.086549999999999,19.1196,8.06494Q19.2653,8.043330000000001,19.4119,8.02889Q19.558500000000002,8.01445,19.7056,8.00723Q19.8527,8,20,8Q20.1473,8,20.2944,8.00723Q20.4415,8.01445,20.5881,8.02889Q20.7347,8.043330000000001,20.8804,8.06494Q21.0261,8.086549999999999,21.1705,8.11529Q21.315,8.144020000000001,21.4579,8.17981Q21.6008,8.2156,21.7417,8.25836Q21.8827,8.301110000000001,22.0213,8.35074Q22.16,8.40036,22.2961,8.45672Q22.4322,8.51309,22.5653,8.57606Q22.6985,8.63904,22.8284,8.70847Q22.9583,8.777899999999999,23.0846,8.853629999999999Q23.2109,8.92935,23.3334,9.01118Q23.4559,9.09301,23.5742,9.18075Q23.6925,9.2685,23.8064,9.36194Q23.9202,9.45538,24.0294,9.55429Q24.1385,9.65321,24.2426,9.75736Q24.3468,9.861509999999999,24.4457,9.97065Q24.5446,10.07978,24.6381,10.19364Q24.7315,10.307500000000001,24.8192,10.425799999999999Q24.907,10.54411,24.9888,10.66658Q25.0706,10.78905,25.1464,10.915379999999999Q25.2221,11.04172,25.2915,11.17162Q25.361,11.30152,25.4239,11.43467Q25.4869,11.567820000000001,25.5433,11.7039Q25.5996,11.83998,25.6493,11.97866Q25.6989,12.11734,25.7416,12.25829Q25.7844,12.39924,25.8202,12.54212Q25.856,12.685,25.8847,12.82946Q25.9134,12.97392,25.9351,13.11962Q25.9567,13.26532,25.9711,13.4119Q25.9855,13.55848,25.9928,13.70559Q26,13.85271,26,14Q26,14.1473,25.9928,14.2944Q25.9855,14.4415,25.9711,14.5881Q25.9567,14.7347,25.9351,14.8804Q25.9134,15.0261,25.8847,15.1705Q25.856,15.315,25.8202,15.4579Q25.7844,15.6008,25.7416,15.7417Q25.6989,15.8827,25.6493,16.0213Q25.5996,16.16,25.5433,16.2961Q25.4869,16.4322,25.4239,16.5653Q25.361,16.6985,25.2915,16.828400000000002Q25.2221,16.9583,25.1464,17.084600000000002Q25.0706,17.211,24.9888,17.333399999999997Q24.907,17.4559,24.8192,17.574199999999998Q24.7315,17.692500000000003,24.6381,17.8064Q24.5446,17.9202,24.4457,18.029400000000003Q24.3468,18.1385,24.2426,18.2426Q24.1385,18.3468,24.0294,18.445700000000002Q23.9202,18.544600000000003,23.8064,18.6381Q23.6925,18.7315,23.5742,18.819200000000002Q23.4559,18.907,23.3334,18.988799999999998Q23.2109,19.0706,23.0846,19.1464Q22.9583,19.222099999999998,22.8284,19.2915Q22.6985,19.361,22.5653,19.4239Q22.4322,19.4869,22.2961,19.543300000000002Q22.16,19.599600000000002,22.0213,19.6493Q21.8827,19.698900000000002,21.7417,19.7416Q21.6008,19.784399999999998,21.4579,19.8202Q21.315,19.856,21.1705,19.884700000000002Q21.0261,19.9134,20.8804,19.9351Q20.7347,19.956699999999998,20.5881,19.9711Q20.4415,19.985500000000002,20.2944,19.992800000000003Q20.1473,20,20,20Q19.8527,20,19.7056,19.992800000000003Q19.558500000000002,19.985500000000002,19.4119,19.9711Q19.2653,19.956699999999998,19.1196,19.9351Q18.9739,19.9134,18.8295,19.884700000000002Q18.685000000000002,19.856,18.542099999999998,19.8202Q18.3992,19.784399999999998,18.2583,19.7416Q18.1173,19.698900000000002,17.9787,19.6493Q17.84,19.599600000000002,17.7039,19.543300000000002Q17.5678,19.4869,17.4347,19.4239Q17.3015,19.361,17.171599999999998,19.2915Q17.0417,19.222099999999998,16.915399999999998,19.1464Q16.789,19.0706,16.666600000000003,18.988799999999998Q16.5441,18.907,16.425800000000002,18.819200000000002Q16.307499999999997,18.7315,16.1936,18.6381Q16.0798,18.544600000000003,15.9706,18.445700000000002Q15.8615,18.3468,15.7574,18.2426Q15.6532,18.1385,15.5543,18.029400000000003Q15.4554,17.9202,15.3619,17.8064Q15.2685,17.692500000000003,15.1808,17.574199999999998Q15.093,17.4559,15.0112,17.333399999999997Q14.9293,17.211,14.8536,17.084600000000002Q14.7779,16.9583,14.7085,16.828400000000002Q14.639,16.6985,14.5761,16.5653Q14.5131,16.4322,14.4567,16.2961Q14.4004,16.16,14.3507,16.0213Q14.3011,15.8827,14.2584,15.7417Q14.2156,15.6008,14.1798,15.4579Q14.144,15.315,14.1153,15.1705Q14.0866,15.0261,14.0649,14.8804Q14.0433,14.7347,14.0289,14.5881Q14.0145,14.4415,14.0072,14.2944Q14,14.1473,14,14ZM12,29.1818L12,29C12,24.5817,15.5817,21,20,21C24.4183,21,28,24.5817,28,29L28,29.1818C28,30.186,27.186,31,26.1818,31L13.81818,31C12.81403,31,12,30.186,12,29.1818Z" fill-rule="evenodd" fill="#0CB6F2" fill-opacity="1"/></g></g></svg>