<svg xmlns="http://www.w3.org/2000/svg" xmlns:xlink="http://www.w3.org/1999/xlink" fill="none" version="1.1" width="10.000007629394531" height="10.000001907348633" viewBox="0 0 10.000007629394531 10.000001907348633"><g style="mix-blend-mode:passthrough"><path d="M9.77471,1.31316C10.0751,1.01276,10.0751,0.525706,9.77471,0.225303C9.47431,-0.075101,8.98726,-0.075101,8.68685,0.225303L5,3.91215L1.31316,0.225303C1.01275,-0.075101,0.525698,-0.075101,0.225298,0.225303C-0.0750923,0.525706,-0.0750923,1.01276,0.225298,1.31316L3.91215,5.00001L0.225303,8.68685C-0.075101,8.98726,-0.075101,9.47431,0.225303,9.77471C0.525706,10.0751,1.01276,10.0751,1.31316,9.77471L5,6.08787L8.68685,9.77471C8.98725,10.0751,9.4743,10.0751,9.7747,9.77471C10.0751,9.47431,10.0751,8.98726,9.7747,8.68685L6.08786,5.00001L9.77471,1.31316Z" fill-rule="evenodd" fill="#C9CCD0" fill-opacity="1"/></g></svg>