<svg xmlns="http://www.w3.org/2000/svg" xmlns:xlink="http://www.w3.org/1999/xlink" fill="none" version="1.1" width="13" height="13.500030517578125" viewBox="0 0 13 13.500030517578125"><g style="mix-blend-mode:passthrough"><path d="M4.70711,4.70711C4.31658,5.09763,3.68342,5.09763,3.29289,4.70711L0.29289,1.70711C-0.09763,1.31658,-0.09763,0.683418,0.29289,0.292893C0.68342,-0.097631,1.31658,-0.097631,1.70711,0.292893L4.70711,3.29289C5.09763,3.68342,5.09763,4.31658,4.70711,4.70711ZM12.7071,0.292893C13.0976,0.683417,13.0976,1.31658,12.7071,1.70711L1.70711,12.7071C1.31658,13.0976,0.683417,13.0976,0.292893,12.7071C-0.097631,12.3166,-0.097631,11.6834,0.292893,11.2929L11.2929,0.292893C11.6834,-0.097631,12.3166,-0.097631,12.7071,0.292893ZM11.2929,13.2071C11.6834,13.5977,12.3166,13.5977,12.7071,13.2071C13.0976,12.8166,13.0976,12.1835,12.7071,11.7929L9.70711,8.79292C9.31658,8.4024,8.68342,8.4024,8.29289,8.79292C7.90237,9.18345,7.90237,9.81661,8.29289,10.2071L11.2929,13.2071Z" fill-rule="evenodd" fill="#9499A0" fill-opacity="1"/></g></svg>