<svg xmlns="http://www.w3.org/2000/svg" xmlns:xlink="http://www.w3.org/1999/xlink" fill="none" version="1.1" width="15" height="15" viewBox="0 0 15 15"><clipPath id="master_svg0_0_1077"><rect x="0" y="0" width="15" height="15" rx="0"/></clipPath><g clip-path="url(#master_svg0_0_1077)" style="mix-blend-mode:passthrough"><g><g style="mix-blend-mode:passthrough"><path d="M6.796875,11.489529609680176C6.796875,11.877864609680175,7.11167,12.192654609680176,7.5,12.192654609680176C7.888335,12.192654609680176,8.203125,11.877864609680175,8.203125,11.489529609680176C8.203125,11.101199609680176,7.888335,10.786404609680176,7.5,10.786404609680176C7.11167,10.786404609680176,6.796875,11.101199609680176,6.796875,11.489529609680176C6.796875,11.489529609680176,6.796875,11.489529609680176,6.796875,11.489529609680176Z" fill="#C9CCD0" fill-opacity="1"/></g><g style="mix-blend-mode:passthrough"><path d="M7.5,14.0625C3.88125,14.0625,0.9375,11.1187,0.9375,7.5C0.9375,3.88125,3.88125,0.9375,7.5,0.9375C11.1187,0.9375,14.0625,3.88125,14.0625,7.5C14.0625,11.1187,11.1187,14.0625,7.5,14.0625C7.5,14.0625,7.5,14.0625,7.5,14.0625ZM7.5,1.879204C4.40062,1.879204,1.879204,4.40062,1.879204,7.5C1.879204,10.59891,4.40062,13.1208,7.5,13.1208C10.59891,13.1208,13.1208,10.59892,13.1208,7.5C13.1208,4.40062,10.59891,1.879204,7.5,1.879204C7.5,1.879204,7.5,1.879204,7.5,1.879204C7.5,1.879204,7.5,1.879204,7.5,1.879204Z" fill="#C9CCD0" fill-opacity="1"/></g><g style="mix-blend-mode:passthrough"><path d="M7.5,9.868573759536744C7.2412399999999995,9.868573759536744,7.03125,9.658573759536743,7.03125,9.399843759536743C7.03125,9.399843759536743,7.03125,8.607183759536742,7.03125,8.607183759536742C7.03125,7.840293759536743,7.61717,7.254373759536743,8.13467,6.737343759536744C8.51388,6.357653759536744,8.90624,5.965783759536743,8.90624,5.653123759536744C8.90624,4.8717137595367435,8.2753,4.236092759536743,7.5,4.236092759536743C6.71158,4.236092759536743,6.09375,4.844533759536743,6.09375,5.621253759536743C6.09375,5.8799937595367435,5.883765,6.089983759536743,5.625,6.089983759536743C5.366235,6.089983759536743,5.15625,5.879983759536743,5.15625,5.621233759536743C5.15625,4.340623759536744,6.20763,3.298593759536743,7.5,3.298593759536743C8.79237,3.298593759536743,9.84375,4.354683759536743,9.84375,5.653123759536744C9.84375,6.3548437595367435,9.311720000000001,6.886393759536743,8.7975,7.400623759536743C8.38969,7.807493759536743,7.96876,8.228433759536744,7.96876,8.606703759536742C7.96876,8.606703759536742,7.96876,9.399353759536744,7.96876,9.399353759536744C7.96876,9.658123759536743,7.7587600000000005,9.868573759536744,7.5,9.868573759536744C7.5,9.868573759536744,7.5,9.868573759536744,7.5,9.868573759536744Z" fill="#C9CCD0" fill-opacity="1"/></g></g></g></svg>