<svg xmlns="http://www.w3.org/2000/svg" xmlns:xlink="http://www.w3.org/1999/xlink" fill="none" version="1.1" width="15" height="15" viewBox="0 0 15 15"><g style="mix-blend-mode:passthrough"><path d="M7.5,0C3.375,0,0,3.375,0,7.5C0,11.625,3.375,15,7.5,15C11.625,15,15,11.625,15,7.5C15,3.375,11.625,0,7.5,0C7.5,0,7.5,0,7.5,0ZM12.2812,5.4375C12.2812,5.4375,6.65625,11.0625,6.65625,11.0625C6.5625,11.1562,6.28125,11.25,6.09375,11.25C5.90625,11.25,5.71875,11.1562,5.53125,11.0625C5.53125,11.0625,2.15625,7.6875,2.15625,7.6875C1.875,7.40625,1.875,6.84375,2.15625,6.5625C2.4375,6.28125,3,6.28125,3.28125,6.5625C3.28125,6.5625,6.09375,9.375,6.09375,9.375C6.09375,9.375,11.1562,4.3125,11.1562,4.3125C11.4375,4.03125,12,4.03125,12.2812,4.3125C12.6562,4.59375,12.6562,5.0625,12.2812,5.4375C12.2812,5.4375,12.2812,5.4375,12.2812,5.4375Z" fill="#7EC684" fill-opacity="1"/></g></svg>